<svg width="79" height="44" viewBox="0 0 79 44" fill="none" xmlns="http://www.w3.org/2000/svg">
<g filter="url(#filter0_d_1_13)">
<mask id="path-1-outside-1_1_13" maskUnits="userSpaceOnUse" x="1" y="2" width="65" height="12" fill="black">
<rect fill="white" x="1" y="2" width="65" height="12"/>
<path d="M6.716 4.824C6.372 4.824 6.064 4.892 5.792 5.028C5.528 5.164 5.304 5.36 5.12 5.616C4.936 5.864 4.796 6.168 4.7 6.528C4.612 6.888 4.568 7.292 4.568 7.74C4.568 8.348 4.64 8.868 4.784 9.3C4.936 9.724 5.172 10.048 5.492 10.272C5.812 10.496 6.22 10.608 6.716 10.608C7.068 10.608 7.416 10.568 7.76 10.488C8.112 10.408 8.492 10.296 8.9 10.152V11.676C8.524 11.828 8.152 11.94 7.784 12.012C7.416 12.084 7.004 12.12 6.548 12.12C5.668 12.12 4.94 11.94 4.364 11.58C3.796 11.212 3.376 10.7 3.104 10.044C2.832 9.38 2.696 8.608 2.696 7.728C2.696 7.08 2.784 6.488 2.96 5.952C3.136 5.408 3.392 4.94 3.728 4.548C4.072 4.156 4.492 3.852 4.988 3.636C5.492 3.42 6.068 3.312 6.716 3.312C7.14 3.312 7.564 3.368 7.988 3.48C8.42 3.584 8.832 3.728 9.224 3.912L8.636 5.388C8.316 5.236 7.992 5.104 7.664 4.992C7.344 4.88 7.028 4.824 6.716 4.824Z"/>
<path d="M17.6806 6.792H15.5326V12H13.7446V6.792H11.5966V5.448H17.6806V6.792ZM22.2974 8.04C22.2974 8.176 22.2894 8.344 22.2734 8.544C22.2654 8.744 22.2534 8.948 22.2374 9.156C22.2294 9.364 22.2174 9.548 22.2014 9.708C22.1854 9.868 22.1734 9.98 22.1654 10.044L25.1894 5.448H27.3374V12H25.6094V9.384C25.6094 9.168 25.6174 8.932 25.6334 8.676C25.6494 8.412 25.6654 8.168 25.6814 7.944C25.7054 7.712 25.7214 7.536 25.7294 7.416L22.7174 12H20.5694V5.448H22.2974V8.04ZM36.7542 12H34.9662V6.792H33.3222C33.2422 7.752 33.1422 8.572 33.0222 9.252C32.9102 9.924 32.7662 10.472 32.5902 10.896C32.4222 11.32 32.2062 11.632 31.9422 11.832C31.6782 12.024 31.3542 12.12 30.9702 12.12C30.7622 12.12 30.5742 12.104 30.4062 12.072C30.2382 12.04 30.0862 11.992 29.9502 11.928V10.5C30.0382 10.532 30.1302 10.56 30.2262 10.584C30.3222 10.608 30.4222 10.62 30.5262 10.62C30.6382 10.62 30.7422 10.576 30.8382 10.488C30.9422 10.4 31.0382 10.244 31.1262 10.02C31.2222 9.796 31.3102 9.488 31.3902 9.096C31.4702 8.704 31.5422 8.212 31.6062 7.62C31.6782 7.02 31.7422 6.296 31.7982 5.448H36.7542V12ZM43.3485 7.98C44.0205 7.98 44.5765 8.052 45.0165 8.196C45.4565 8.332 45.7805 8.544 45.9885 8.832C46.2045 9.12 46.3125 9.48 46.3125 9.912C46.3125 10.336 46.2125 10.704 46.0125 11.016C45.8205 11.328 45.5125 11.572 45.0885 11.748C44.6645 11.916 44.1085 12 43.4205 12H40.3005V5.448H42.0885V7.98H43.3485ZM44.5245 9.936C44.5245 9.68 44.4205 9.496 44.2125 9.384C44.0125 9.272 43.7125 9.216 43.3125 9.216H42.0885V10.764H43.3365C43.6885 10.764 43.9725 10.7 44.1885 10.572C44.4125 10.444 44.5245 10.232 44.5245 9.936ZM51.1396 5.448V7.968H53.6356V5.448H55.4236V12H53.6356V9.3H51.1396V12H49.3516V5.448H51.1396ZM61.6649 5.316C62.5449 5.316 63.2169 5.508 63.6809 5.892C64.1529 6.268 64.3889 6.848 64.3889 7.632V12H63.1409L62.7929 11.112H62.7449C62.5609 11.344 62.3689 11.536 62.1689 11.688C61.9769 11.84 61.7529 11.948 61.4969 12.012C61.2489 12.084 60.9409 12.12 60.5729 12.12C60.1889 12.12 59.8409 12.048 59.5289 11.904C59.2249 11.752 58.9849 11.524 58.8089 11.22C58.6329 10.908 58.5449 10.516 58.5449 10.044C58.5449 9.348 58.7889 8.836 59.2769 8.508C59.7649 8.172 60.4969 7.988 61.4729 7.956L62.6129 7.92V7.632C62.6129 7.288 62.5209 7.036 62.3369 6.876C62.1609 6.716 61.9129 6.636 61.5929 6.636C61.2729 6.636 60.9609 6.684 60.6569 6.78C60.3529 6.868 60.0489 6.98 59.7449 7.116L59.1569 5.904C59.5089 5.72 59.8969 5.576 60.3209 5.472C60.7529 5.368 61.2009 5.316 61.6649 5.316ZM61.9169 8.988C61.3409 9.004 60.9409 9.108 60.7169 9.3C60.4929 9.492 60.3809 9.744 60.3809 10.056C60.3809 10.328 60.4609 10.524 60.6209 10.644C60.7809 10.756 60.9889 10.812 61.2449 10.812C61.6289 10.812 61.9529 10.7 62.2169 10.476C62.4809 10.244 62.6129 9.92 62.6129 9.504V8.964L61.9169 8.988Z"/>
</mask>
<path d="M6.716 4.824C6.372 4.824 6.064 4.892 5.792 5.028C5.528 5.164 5.304 5.36 5.12 5.616C4.936 5.864 4.796 6.168 4.7 6.528C4.612 6.888 4.568 7.292 4.568 7.74C4.568 8.348 4.64 8.868 4.784 9.3C4.936 9.724 5.172 10.048 5.492 10.272C5.812 10.496 6.22 10.608 6.716 10.608C7.068 10.608 7.416 10.568 7.76 10.488C8.112 10.408 8.492 10.296 8.9 10.152V11.676C8.524 11.828 8.152 11.94 7.784 12.012C7.416 12.084 7.004 12.12 6.548 12.12C5.668 12.12 4.94 11.94 4.364 11.58C3.796 11.212 3.376 10.7 3.104 10.044C2.832 9.38 2.696 8.608 2.696 7.728C2.696 7.08 2.784 6.488 2.96 5.952C3.136 5.408 3.392 4.94 3.728 4.548C4.072 4.156 4.492 3.852 4.988 3.636C5.492 3.42 6.068 3.312 6.716 3.312C7.14 3.312 7.564 3.368 7.988 3.48C8.42 3.584 8.832 3.728 9.224 3.912L8.636 5.388C8.316 5.236 7.992 5.104 7.664 4.992C7.344 4.88 7.028 4.824 6.716 4.824Z" fill="#FF238D"/>
<path d="M17.6806 6.792H15.5326V12H13.7446V6.792H11.5966V5.448H17.6806V6.792ZM22.2974 8.04C22.2974 8.176 22.2894 8.344 22.2734 8.544C22.2654 8.744 22.2534 8.948 22.2374 9.156C22.2294 9.364 22.2174 9.548 22.2014 9.708C22.1854 9.868 22.1734 9.98 22.1654 10.044L25.1894 5.448H27.3374V12H25.6094V9.384C25.6094 9.168 25.6174 8.932 25.6334 8.676C25.6494 8.412 25.6654 8.168 25.6814 7.944C25.7054 7.712 25.7214 7.536 25.7294 7.416L22.7174 12H20.5694V5.448H22.2974V8.04ZM36.7542 12H34.9662V6.792H33.3222C33.2422 7.752 33.1422 8.572 33.0222 9.252C32.9102 9.924 32.7662 10.472 32.5902 10.896C32.4222 11.32 32.2062 11.632 31.9422 11.832C31.6782 12.024 31.3542 12.12 30.9702 12.12C30.7622 12.12 30.5742 12.104 30.4062 12.072C30.2382 12.04 30.0862 11.992 29.9502 11.928V10.5C30.0382 10.532 30.1302 10.56 30.2262 10.584C30.3222 10.608 30.4222 10.62 30.5262 10.62C30.6382 10.62 30.7422 10.576 30.8382 10.488C30.9422 10.4 31.0382 10.244 31.1262 10.02C31.2222 9.796 31.3102 9.488 31.3902 9.096C31.4702 8.704 31.5422 8.212 31.6062 7.62C31.6782 7.02 31.7422 6.296 31.7982 5.448H36.7542V12ZM43.3485 7.98C44.0205 7.98 44.5765 8.052 45.0165 8.196C45.4565 8.332 45.7805 8.544 45.9885 8.832C46.2045 9.12 46.3125 9.48 46.3125 9.912C46.3125 10.336 46.2125 10.704 46.0125 11.016C45.8205 11.328 45.5125 11.572 45.0885 11.748C44.6645 11.916 44.1085 12 43.4205 12H40.3005V5.448H42.0885V7.98H43.3485ZM44.5245 9.936C44.5245 9.68 44.4205 9.496 44.2125 9.384C44.0125 9.272 43.7125 9.216 43.3125 9.216H42.0885V10.764H43.3365C43.6885 10.764 43.9725 10.7 44.1885 10.572C44.4125 10.444 44.5245 10.232 44.5245 9.936ZM51.1396 5.448V7.968H53.6356V5.448H55.4236V12H53.6356V9.3H51.1396V12H49.3516V5.448H51.1396ZM61.6649 5.316C62.5449 5.316 63.2169 5.508 63.6809 5.892C64.1529 6.268 64.3889 6.848 64.3889 7.632V12H63.1409L62.7929 11.112H62.7449C62.5609 11.344 62.3689 11.536 62.1689 11.688C61.9769 11.84 61.7529 11.948 61.4969 12.012C61.2489 12.084 60.9409 12.12 60.5729 12.12C60.1889 12.12 59.8409 12.048 59.5289 11.904C59.2249 11.752 58.9849 11.524 58.8089 11.22C58.6329 10.908 58.5449 10.516 58.5449 10.044C58.5449 9.348 58.7889 8.836 59.2769 8.508C59.7649 8.172 60.4969 7.988 61.4729 7.956L62.6129 7.92V7.632C62.6129 7.288 62.5209 7.036 62.3369 6.876C62.1609 6.716 61.9129 6.636 61.5929 6.636C61.2729 6.636 60.9609 6.684 60.6569 6.78C60.3529 6.868 60.0489 6.98 59.7449 7.116L59.1569 5.904C59.5089 5.72 59.8969 5.576 60.3209 5.472C60.7529 5.368 61.2009 5.316 61.6649 5.316ZM61.9169 8.988C61.3409 9.004 60.9409 9.108 60.7169 9.3C60.4929 9.492 60.3809 9.744 60.3809 10.056C60.3809 10.328 60.4609 10.524 60.6209 10.644C60.7809 10.756 60.9889 10.812 61.2449 10.812C61.6289 10.812 61.9529 10.7 62.2169 10.476C62.4809 10.244 62.6129 9.92 62.6129 9.504V8.964L61.9169 8.988Z" fill="#700098"/>
<path d="M5.792 5.028L5.34475 4.13351L5.33404 4.13903L5.792 5.028ZM5.12 5.616L5.9231 6.21185L5.9276 6.20578L5.93202 6.19964L5.12 5.616ZM4.7 6.528L3.73377 6.27034L3.73108 6.28041L3.7286 6.29055L4.7 6.528ZM4.784 9.3L3.83532 9.61623L3.83887 9.62689L3.84266 9.63746L4.784 9.3ZM5.492 10.272L4.91854 11.0912L4.91854 11.0912L5.492 10.272ZM7.76 10.488L7.53838 9.51285L7.53349 9.51399L7.76 10.488ZM8.9 10.152H9.9V8.7386L8.56718 9.20901L8.9 10.152ZM8.9 11.676L9.27479 12.6031L9.9 12.3504V11.676H8.9ZM7.784 12.012L7.97601 12.9934L7.97601 12.9934L7.784 12.012ZM4.364 11.58L3.82026 12.4193L3.82709 12.4237L3.834 12.428L4.364 11.58ZM3.104 10.044L2.17862 10.4231L2.18026 10.427L3.104 10.044ZM2.96 5.952L3.9101 6.26397L3.91144 6.25982L2.96 5.952ZM3.728 4.548L2.97632 3.88836L2.96874 3.89721L3.728 4.548ZM4.988 3.636L4.59407 2.71684L4.58873 2.71916L4.988 3.636ZM7.988 3.48L7.73261 4.44684L7.74325 4.44965L7.75395 4.45222L7.988 3.48ZM9.224 3.912L10.153 4.28209L10.5016 3.40701L9.64891 3.00676L9.224 3.912ZM8.636 5.388L8.20694 6.29128L9.1703 6.74887L9.565 5.75809L8.636 5.388ZM7.664 4.992L7.33364 5.93589L7.34086 5.93835L7.664 4.992ZM6.716 3.824C6.23727 3.824 5.7729 3.91952 5.34479 4.13357L6.23921 5.92243C6.3551 5.86448 6.50673 5.824 6.716 5.824V3.824ZM5.33404 4.13903C4.92093 4.35184 4.57838 4.65616 4.30798 5.03236L5.93202 6.19964C6.02962 6.06384 6.13507 5.97616 6.24996 5.91697L5.33404 4.13903ZM4.3169 5.02015C4.04387 5.38816 3.85575 5.81288 3.73377 6.27034L5.66624 6.78566C5.73625 6.52312 5.82813 6.33984 5.9231 6.21185L4.3169 5.02015ZM3.7286 6.29055C3.61814 6.74242 3.568 7.22801 3.568 7.74H5.568C5.568 7.35599 5.60586 7.03358 5.6714 6.76545L3.7286 6.29055ZM3.568 7.74C3.568 8.42177 3.64809 9.05456 3.83532 9.61623L5.73268 8.98377C5.63191 8.68144 5.568 8.27423 5.568 7.74H3.568ZM3.84266 9.63746C4.05343 10.2254 4.40402 10.7311 4.91854 11.0912L6.06546 9.45277C5.93998 9.36493 5.81857 9.2226 5.72534 8.96254L3.84266 9.63746ZM4.91854 11.0912C5.44696 11.4611 6.07028 11.608 6.716 11.608V9.608C6.36972 9.608 6.17704 9.53087 6.06546 9.45277L4.91854 11.0912ZM6.716 11.608C7.14451 11.608 7.5685 11.5592 7.98651 11.462L7.53349 9.51399C7.2635 9.57678 6.99149 9.608 6.716 9.608V11.608ZM7.98162 11.4631C8.37779 11.3731 8.7953 11.2494 9.23282 11.095L8.56718 9.20901C8.1887 9.34259 7.84621 9.44291 7.53838 9.51287L7.98162 11.4631ZM7.9 10.152V11.676H9.9V10.152H7.9ZM8.52521 10.7489C8.20352 10.8789 7.89264 10.9718 7.59199 11.0306L7.97601 12.9934C8.41136 12.9082 8.84448 12.7771 9.27479 12.6031L8.52521 10.7489ZM7.59199 11.0306C7.29906 11.0879 6.95282 11.12 6.548 11.12V13.12C7.05518 13.12 7.53294 13.0801 7.97601 12.9934L7.59199 11.0306ZM6.548 11.12C5.80094 11.12 5.27046 10.9673 4.894 10.732L3.834 12.428C4.60954 12.9127 5.53506 13.12 6.548 13.12V11.12ZM4.90774 10.7407C4.51834 10.4885 4.22623 10.1397 4.02774 9.66099L2.18026 10.427C2.52577 11.2603 3.07366 11.9355 3.82026 12.4193L4.90774 10.7407ZM4.02937 9.66493C3.81644 9.14513 3.696 8.50658 3.696 7.728H1.696C1.696 8.70942 1.84756 9.61487 2.17863 10.4231L4.02937 9.66493ZM3.696 7.728C3.696 7.17052 3.77165 6.68558 3.91009 6.26397L2.00991 5.64003C1.79635 6.29042 1.696 6.98948 1.696 7.728H3.696ZM3.91144 6.25982C4.05109 5.82817 4.2462 5.48003 4.48726 5.19879L2.96874 3.89721C2.5378 4.39997 2.22091 4.98783 2.00856 5.64418L3.91144 6.25982ZM4.47963 5.20759C4.72288 4.93039 5.02105 4.71232 5.38727 4.55283L4.58873 2.71916C3.96295 2.99168 3.42112 3.38161 2.97637 3.88841L4.47963 5.20759ZM5.38192 4.55514C5.74094 4.40128 6.17919 4.312 6.716 4.312V2.312C5.95681 2.312 5.24306 2.43872 4.59408 2.71685L5.38192 4.55514ZM6.716 4.312C7.05088 4.312 7.38908 4.35609 7.73261 4.44684L8.24339 2.51316C7.73892 2.3799 7.22912 2.312 6.716 2.312V4.312ZM7.75395 4.45222C8.12195 4.54082 8.46986 4.6627 8.79909 4.81724L9.64891 3.00676C9.19414 2.7933 8.71805 2.62718 8.22205 2.50778L7.75395 4.45222ZM8.295 3.54191L7.707 5.01791L9.565 5.75809L10.153 4.28209L8.295 3.54191ZM9.06506 4.48472C8.71136 4.31672 8.35203 4.17024 7.98714 4.04565L7.34086 5.93835C7.63197 6.03775 7.92064 6.15528 8.20694 6.29128L9.06506 4.48472ZM7.99435 4.04814C7.57737 3.9022 7.14984 3.824 6.716 3.824V5.824C6.90616 5.824 7.11063 5.8578 7.33365 5.93586L7.99435 4.04814ZM17.6806 6.792V7.792H18.6806V6.792H17.6806ZM15.5326 6.792V5.792H14.5326V6.792H15.5326ZM15.5326 12V13H16.5326V12H15.5326ZM13.7446 12H12.7446V13H13.7446V12ZM13.7446 6.792H14.7446V5.792H13.7446V6.792ZM11.5966 6.792H10.5966V7.792H11.5966V6.792ZM11.5966 5.448V4.448H10.5966V5.448H11.5966ZM17.6806 5.448H18.6806V4.448H17.6806V5.448ZM17.6806 5.792H15.5326V7.792H17.6806V5.792ZM14.5326 6.792V12H16.5326V6.792H14.5326ZM15.5326 11H13.7446V13H15.5326V11ZM14.7446 12V6.792H12.7446V12H14.7446ZM13.7446 5.792H11.5966V7.792H13.7446V5.792ZM12.5966 6.792V5.448H10.5966V6.792H12.5966ZM11.5966 6.448H17.6806V4.448H11.5966V6.448ZM16.6806 5.448V6.792H18.6806V5.448H16.6806ZM22.2734 8.544L21.2766 8.46425L21.275 8.48412L21.2742 8.50403L22.2734 8.544ZM22.2374 9.156L21.2404 9.0793L21.2389 9.09841L21.2382 9.11757L22.2374 9.156ZM22.2014 9.708L23.1965 9.8075L23.1965 9.8075L22.2014 9.708ZM22.1654 10.044L21.1732 9.91997L23.0008 10.5937L22.1654 10.044ZM25.1894 5.448V4.448H24.6504L24.354 4.89834L25.1894 5.448ZM27.3374 5.448H28.3374V4.448H27.3374V5.448ZM27.3374 12V13H28.3374V12H27.3374ZM25.6094 12H24.6094V13H25.6094V12ZM25.6334 8.676L26.6315 8.73838L26.6316 8.7365L25.6334 8.676ZM25.6814 7.944L24.6867 7.8411L24.6851 7.8569L24.684 7.87275L25.6814 7.944ZM25.7294 7.416L26.7272 7.48252L26.9799 3.69181L24.8937 6.86687L25.7294 7.416ZM22.7174 12V13H23.2569L23.5532 12.5491L22.7174 12ZM20.5694 12H19.5694V13H20.5694V12ZM20.5694 5.448V4.448H19.5694V5.448H20.5694ZM22.2974 5.448H23.2974V4.448H22.2974V5.448ZM21.2974 8.04C21.2974 8.14014 21.2914 8.2796 21.2766 8.46425L23.2703 8.62375C23.2875 8.4084 23.2974 8.21186 23.2974 8.04H21.2974ZM21.2742 8.50403C21.2667 8.69127 21.2555 8.88302 21.2404 9.0793L23.2345 9.2327C23.2514 9.01298 23.2641 8.79672 23.2726 8.58397L21.2742 8.50403ZM21.2382 9.11757C21.2307 9.31075 21.2199 9.47369 21.2064 9.6085L23.1965 9.8075C23.215 9.62231 23.2281 9.41725 23.2367 9.19443L21.2382 9.11757ZM21.2064 9.6085C21.1904 9.7688 21.1795 9.86962 21.1732 9.91997L23.1577 10.168C23.1674 10.0904 23.1805 9.9672 23.1965 9.8075L21.2064 9.6085ZM23.0008 10.5937L26.0248 5.99766L24.354 4.89834L21.33 9.49434L23.0008 10.5937ZM25.1894 6.448H27.3374V4.448H25.1894V6.448ZM26.3374 5.448V12H28.3374V5.448H26.3374ZM27.3374 11H25.6094V13H27.3374V11ZM26.6094 12V9.384H24.6094V12H26.6094ZM26.6094 9.384C26.6094 9.19222 26.6166 8.97733 26.6315 8.73838L24.6354 8.61362C24.6183 8.88667 24.6094 9.14378 24.6094 9.384H26.6094ZM26.6316 8.7365C26.6474 8.47547 26.6632 8.2351 26.6789 8.01525L24.684 7.87275C24.6677 8.1009 24.6515 8.34853 24.6353 8.6155L26.6316 8.7365ZM26.6761 8.0469C26.7005 7.81177 26.718 7.62119 26.7272 7.48252L24.7317 7.34948C24.7249 7.45081 24.7104 7.61223 24.6867 7.8411L26.6761 8.0469ZM24.8937 6.86687L21.8817 11.4509L23.5532 12.5491L26.5652 7.96513L24.8937 6.86687ZM22.7174 11H20.5694V13H22.7174V11ZM21.5694 12V5.448H19.5694V12H21.5694ZM20.5694 6.448H22.2974V4.448H20.5694V6.448ZM21.2974 5.448V8.04H23.2974V5.448H21.2974ZM36.7542 12V13H37.7542V12H36.7542ZM34.9662 12H33.9662V13H34.9662V12ZM34.9662 6.792H35.9662V5.792H34.9662V6.792ZM33.3222 6.792V5.792H32.402L32.3256 6.70895L33.3222 6.792ZM33.0222 9.252L32.0373 9.07821L32.0358 9.0876L33.0222 9.252ZM32.5902 10.896L31.6666 10.5126L31.6635 10.5201L31.6605 10.5276L32.5902 10.896ZM31.9422 11.832L32.5303 12.6407L32.5382 12.635L32.546 12.6291L31.9422 11.832ZM30.4062 12.072L30.5933 11.0897L30.5933 11.0897L30.4062 12.072ZM29.9502 11.928H28.9502V12.5626L29.5244 12.8328L29.9502 11.928ZM29.9502 10.5L30.2919 9.56021L28.9502 9.0723V10.5H29.9502ZM30.2262 10.584L30.4687 9.61386L30.4687 9.61386L30.2262 10.584ZM30.8382 10.488L30.1922 9.72461L30.1771 9.73743L30.1624 9.75085L30.8382 10.488ZM31.1262 10.02L30.207 9.62608L30.201 9.64013L30.1954 9.65435L31.1262 10.02ZM31.3902 9.096L30.4104 8.89604L30.4104 8.89604L31.3902 9.096ZM31.6062 7.62L30.6132 7.50085L30.6119 7.51252L31.6062 7.62ZM31.7982 5.448V4.448H30.862L30.8003 5.38211L31.7982 5.448ZM36.7542 5.448H37.7542V4.448H36.7542V5.448ZM36.7542 11H34.9662V13H36.7542V11ZM35.9662 12V6.792H33.9662V12H35.9662ZM34.9662 5.792H33.3222V7.792H34.9662V5.792ZM32.3256 6.70895C32.2472 7.64942 32.1505 8.43738 32.0374 9.07821L34.0069 9.42579C34.1339 8.70662 34.2371 7.85458 34.3187 6.87505L32.3256 6.70895ZM32.0358 9.0876C31.9309 9.7169 31.803 10.184 31.6666 10.5126L33.5137 11.2794C33.7293 10.76 33.8894 10.1311 34.0085 9.4164L32.0358 9.0876ZM31.6605 10.5276C31.5355 10.8432 31.4115 10.9794 31.3383 11.0349L32.546 12.6291C33.0008 12.2846 33.3089 11.7968 33.5198 11.2644L31.6605 10.5276ZM31.354 11.0233C31.2896 11.0701 31.1812 11.12 30.9702 11.12V13.12C31.5271 13.12 32.0668 12.9779 32.5303 12.6407L31.354 11.0233ZM30.9702 11.12C30.812 11.12 30.6881 11.1077 30.5933 11.0897L30.219 13.0543C30.4602 13.1003 30.7123 13.12 30.9702 13.12V11.12ZM30.5933 11.0897C30.4967 11.0713 30.4264 11.0469 30.376 11.0232L29.5244 12.8328C29.7459 12.9371 29.9797 13.0087 30.219 13.0543L30.5933 11.0897ZM30.9502 11.928V10.5H28.9502V11.928H30.9502ZM29.6084 11.4398C29.7307 11.4843 29.8559 11.5222 29.9836 11.5541L30.4687 9.61386C30.4044 9.59778 30.3456 9.57974 30.2919 9.56021L29.6084 11.4398ZM29.9836 11.5541C30.1629 11.599 30.3446 11.62 30.5262 11.62V9.62C30.4998 9.62 30.4814 9.61704 30.4687 9.61386L29.9836 11.5541ZM30.5262 11.62C30.9286 11.62 31.2655 11.4529 31.5139 11.2252L30.1624 9.75085C30.1859 9.72932 30.2306 9.69476 30.2985 9.66603C30.3687 9.63632 30.4472 9.62 30.5262 9.62V11.62ZM31.4841 11.2514C31.7776 11.0031 31.9483 10.6622 32.0569 10.3857L30.1954 9.65435C30.1815 9.68979 30.1691 9.71784 30.1586 9.73944C30.1481 9.76116 30.1405 9.77442 30.1365 9.7809C30.1324 9.78752 30.1336 9.78464 30.1413 9.77532C30.1489 9.76606 30.1653 9.74737 30.1922 9.72461L31.4841 11.2514ZM32.0453 10.4139C32.1796 10.1007 32.2838 9.71798 32.37 9.29596L30.4104 8.89604C30.3365 9.25802 30.2648 9.49135 30.207 9.62608L32.0453 10.4139ZM32.37 9.29596C32.4584 8.86253 32.5345 8.33712 32.6004 7.72748L30.6119 7.51252C30.5499 8.08688 30.4819 8.54547 30.4104 8.89604L32.37 9.29596ZM32.599 7.73914C32.6738 7.11597 32.7392 6.37317 32.796 5.51389L30.8003 5.38211C30.7451 6.21883 30.6825 6.92403 30.6133 7.50085L32.599 7.73914ZM31.7982 6.448H36.7542V4.448H31.7982V6.448ZM35.7542 5.448V12H37.7542V5.448H35.7542ZM45.0165 8.196L44.7055 9.1464L44.7133 9.14896L44.7212 9.1514L45.0165 8.196ZM45.9885 8.832L45.1779 9.41749L45.1831 9.42479L45.1885 9.432L45.9885 8.832ZM46.0125 11.016L45.1707 10.4763L45.1657 10.4841L45.1609 10.4919L46.0125 11.016ZM45.0885 11.748L45.4569 12.6777L45.4644 12.6747L45.4719 12.6716L45.0885 11.748ZM40.3005 12H39.3005V13H40.3005V12ZM40.3005 5.448V4.448H39.3005V5.448H40.3005ZM42.0885 5.448H43.0885V4.448H42.0885V5.448ZM42.0885 7.98H41.0885V8.98H42.0885V7.98ZM44.2125 9.384L43.7239 10.2565L43.7311 10.2605L43.7384 10.2645L44.2125 9.384ZM42.0885 9.216V8.216H41.0885V9.216H42.0885ZM42.0885 10.764H41.0885V11.764H42.0885V10.764ZM44.1885 10.572L43.6924 9.70376L43.6855 9.70768L43.6787 9.71171L44.1885 10.572ZM43.3485 8.98C43.9582 8.98 44.4001 9.04645 44.7055 9.1464L45.3276 7.2456C44.753 7.05755 44.0829 6.98 43.3485 6.98V8.98ZM44.7212 9.1514C45.0155 9.24236 45.1302 9.35144 45.1779 9.41749L46.7992 8.24651C46.4309 7.73656 45.8976 7.42164 45.3118 7.2406L44.7212 9.1514ZM45.1885 9.432C45.2503 9.5144 45.3125 9.65187 45.3125 9.912H47.3125C47.3125 9.30813 47.1587 8.7256 46.7885 8.232L45.1885 9.432ZM45.3125 9.912C45.3125 10.173 45.2531 10.3476 45.1707 10.4763L46.8544 11.5557C47.1719 11.0604 47.3125 10.499 47.3125 9.912H45.3125ZM45.1609 10.4919C45.1043 10.5839 44.9846 10.7084 44.7052 10.8244L45.4719 12.6716C46.0405 12.4356 46.5368 12.0721 46.8642 11.5401L45.1609 10.4919ZM44.7202 10.8183C44.4573 10.9225 44.0402 11 43.4205 11V13C44.1768 13 44.8718 12.9095 45.4569 12.6777L44.7202 10.8183ZM43.4205 11H40.3005V13H43.4205V11ZM41.3005 12V5.448H39.3005V12H41.3005ZM40.3005 6.448H42.0885V4.448H40.3005V6.448ZM41.0885 5.448V7.98H43.0885V5.448H41.0885ZM42.0885 8.98H43.3485V6.98H42.0885V8.98ZM45.5245 9.936C45.5245 9.67185 45.4702 9.38477 45.3171 9.11394C45.1616 8.8388 44.9366 8.63814 44.6866 8.50353L43.7384 10.2645C43.6964 10.2419 43.6275 10.1892 43.576 10.0981C43.5269 10.0112 43.5245 9.94415 43.5245 9.936H45.5245ZM44.7011 8.51149C44.2784 8.27478 43.7731 8.216 43.3125 8.216V10.216C43.4688 10.216 43.5798 10.2272 43.654 10.241C43.7302 10.2552 43.7445 10.268 43.7239 10.2565L44.7011 8.51149ZM43.3125 8.216H42.0885V10.216H43.3125V8.216ZM41.0885 9.216V10.764H43.0885V9.216H41.0885ZM42.0885 11.764H43.3365V9.764H42.0885V11.764ZM43.3365 11.764C43.7993 11.764 44.2781 11.6813 44.6983 11.4323L43.6787 9.71171C43.667 9.71867 43.5778 9.764 43.3365 9.764V11.764ZM44.6847 11.4402C45.2717 11.1048 45.5245 10.5274 45.5245 9.936H43.5245C43.5245 9.95879 43.5205 9.91777 43.5563 9.84988C43.5958 9.77523 43.6527 9.72646 43.6924 9.70376L44.6847 11.4402ZM51.1396 5.448H52.1396V4.448H51.1396V5.448ZM51.1396 7.968H50.1396V8.968H51.1396V7.968ZM53.6356 7.968V8.968H54.6356V7.968H53.6356ZM53.6356 5.448V4.448H52.6356V5.448H53.6356ZM55.4236 5.448H56.4236V4.448H55.4236V5.448ZM55.4236 12V13H56.4236V12H55.4236ZM53.6356 12H52.6356V13H53.6356V12ZM53.6356 9.3H54.6356V8.3H53.6356V9.3ZM51.1396 9.3V8.3H50.1396V9.3H51.1396ZM51.1396 12V13H52.1396V12H51.1396ZM49.3516 12H48.3516V13H49.3516V12ZM49.3516 5.448V4.448H48.3516V5.448H49.3516ZM50.1396 5.448V7.968H52.1396V5.448H50.1396ZM51.1396 8.968H53.6356V6.968H51.1396V8.968ZM54.6356 7.968V5.448H52.6356V7.968H54.6356ZM53.6356 6.448H55.4236V4.448H53.6356V6.448ZM54.4236 5.448V12H56.4236V5.448H54.4236ZM55.4236 11H53.6356V13H55.4236V11ZM54.6356 12V9.3H52.6356V12H54.6356ZM53.6356 8.3H51.1396V10.3H53.6356V8.3ZM50.1396 9.3V12H52.1396V9.3H50.1396ZM51.1396 11H49.3516V13H51.1396V11ZM50.3516 12V5.448H48.3516V12H50.3516ZM49.3516 6.448H51.1396V4.448H49.3516V6.448ZM63.6809 5.892L63.0434 6.66239L63.0506 6.66834L63.0579 6.67416L63.6809 5.892ZM64.3889 12V13H65.3889V12H64.3889ZM63.1409 12L62.2099 12.3649L62.4588 13H63.1409V12ZM62.7929 11.112L63.724 10.7471L63.4751 10.112H62.7929V11.112ZM62.7449 11.112V10.112H62.2617L61.9614 10.4906L62.7449 11.112ZM62.1689 11.688L61.5639 10.8918L61.556 10.8978L61.5482 10.904L62.1689 11.688ZM61.4969 12.012L61.2544 11.0419L61.2362 11.0464L61.2181 11.0517L61.4969 12.012ZM59.5289 11.904L59.0817 12.7984L59.0957 12.8054L59.1099 12.812L59.5289 11.904ZM58.8089 11.22L57.9379 11.7114L57.9435 11.721L58.8089 11.22ZM59.2769 8.508L59.8348 9.338L59.844 9.33165L59.2769 8.508ZM61.4729 7.956L61.4414 6.9565L61.4402 6.95654L61.4729 7.956ZM62.6129 7.92L62.6445 8.9195L63.6129 8.88892V7.92H62.6129ZM62.3369 6.876L61.6643 7.61594L61.6724 7.62336L61.6808 7.63061L62.3369 6.876ZM60.6569 6.78L60.935 7.74056L60.9466 7.73721L60.9581 7.73358L60.6569 6.78ZM59.7449 7.116L58.8452 7.55249L59.2684 8.4247L60.1533 8.02882L59.7449 7.116ZM59.1569 5.904L58.6937 5.01777L57.8336 5.46735L58.2572 6.34049L59.1569 5.904ZM60.3209 5.472L60.0869 4.49977L60.0827 4.50079L60.3209 5.472ZM61.9169 8.988L61.9447 9.98764L61.9514 9.98741L61.9169 8.988ZM60.7169 9.3L60.0661 8.54074L60.0661 8.54074L60.7169 9.3ZM60.6209 10.644L60.0209 11.444L60.034 11.4538L60.0475 11.4632L60.6209 10.644ZM62.2169 10.476L62.8639 11.2385L62.8705 11.2329L62.8771 11.2272L62.2169 10.476ZM62.6129 8.964H63.6129V7.92892L62.5785 7.96459L62.6129 8.964ZM61.6649 6.316C62.4165 6.316 62.8253 6.48193 63.0434 6.66239L64.3185 5.12161C63.6086 4.53407 62.6734 4.316 61.6649 4.316V6.316ZM63.0579 6.67416C63.2239 6.80646 63.3889 7.05386 63.3889 7.632H65.3889C65.3889 6.64214 65.0819 5.72954 64.304 5.10984L63.0579 6.67416ZM63.3889 7.632V12H65.3889V7.632H63.3889ZM64.3889 11H63.1409V13H64.3889V11ZM64.072 11.6351L63.724 10.7471L61.8619 11.4769L62.2099 12.3649L64.072 11.6351ZM62.7929 10.112H62.7449V12.112H62.7929V10.112ZM61.9614 10.4906C61.8204 10.6684 61.6867 10.7985 61.5639 10.8918L62.774 12.4842C63.0512 12.2735 63.3015 12.0196 63.5284 11.7334L61.9614 10.4906ZM61.5482 10.904C61.4761 10.9611 61.3834 11.0096 61.2544 11.0419L61.7395 12.9821C62.1225 12.8864 62.4778 12.7189 62.7896 12.472L61.5482 10.904ZM61.2181 11.0517C61.0901 11.0888 60.8831 11.12 60.5729 11.12V13.12C60.9988 13.12 61.4077 13.0792 61.7757 12.9723L61.2181 11.0517ZM60.5729 11.12C60.3165 11.12 60.1139 11.0726 59.948 10.996L59.1099 12.812C59.5679 13.0234 60.0613 13.12 60.5729 13.12V11.12ZM59.9761 11.0096C59.8531 10.9481 59.7559 10.8598 59.6744 10.719L57.9435 11.721C58.214 12.1882 58.5968 12.5559 59.0817 12.7984L59.9761 11.0096ZM59.6799 10.7287C59.6112 10.6068 59.5449 10.3968 59.5449 10.044H57.5449C57.5449 10.6352 57.6547 11.2092 57.938 11.7113L59.6799 10.7287ZM59.5449 10.044C59.5449 9.61053 59.6769 9.44404 59.8348 9.33795L58.7191 7.67805C57.9009 8.22796 57.5449 9.08547 57.5449 10.044H59.5449ZM59.844 9.33165C60.1025 9.15366 60.6095 8.98485 61.5057 8.95546L61.4402 6.95654C60.3844 6.99115 59.4273 7.19034 58.7098 7.68435L59.844 9.33165ZM61.5045 8.9555L62.6445 8.9195L62.5814 6.9205L61.4414 6.9565L61.5045 8.9555ZM63.6129 7.92V7.632H61.6129V7.92H63.6129ZM63.6129 7.632C63.6129 7.12162 63.4738 6.53941 62.9931 6.12139L61.6808 7.63061C61.6589 7.61162 61.6407 7.5905 61.6269 7.56981C61.6133 7.54952 61.6068 7.53413 61.6046 7.52794C61.6025 7.5222 61.6047 7.52636 61.6074 7.54381C61.6101 7.56138 61.6129 7.5901 61.6129 7.632H63.6129ZM63.0096 6.13606C62.5938 5.75809 62.0745 5.636 61.5929 5.636V7.636C61.6715 7.636 61.7067 7.64603 61.7119 7.64771C61.7139 7.64835 61.7087 7.64685 61.6988 7.64126C61.6887 7.63553 61.6766 7.62713 61.6643 7.61594L63.0096 6.13606ZM61.5929 5.636C61.1712 5.636 60.7576 5.69954 60.3558 5.82642L60.9581 7.73358C61.1643 7.66846 61.3747 7.636 61.5929 7.636V5.636ZM60.3789 5.81944C60.0281 5.92096 59.6807 6.04925 59.3366 6.20318L60.1533 8.02882C60.4172 7.91075 60.6777 7.81503 60.935 7.74056L60.3789 5.81944ZM60.6446 6.67951L60.0566 5.46751L58.2572 6.34049L58.8452 7.55249L60.6446 6.67951ZM59.6202 6.79023C59.8942 6.64698 60.2057 6.52991 60.5592 6.44321L60.0827 4.50079C59.5882 4.62209 59.1236 4.79302 58.6937 5.01777L59.6202 6.79023ZM60.555 6.44422C60.907 6.35947 61.2763 6.316 61.6649 6.316V4.316C61.1256 4.316 60.5988 4.37652 60.0869 4.49978L60.555 6.44422ZM61.8892 7.98839C61.2705 8.00557 60.5665 8.11186 60.0661 8.54074L61.3677 10.0593C61.3275 10.0937 61.3284 10.0739 61.4366 10.0458C61.5411 10.0187 61.7051 9.99427 61.9447 9.98761L61.8892 7.98839ZM60.0661 8.54074C59.6064 8.93484 59.3809 9.47121 59.3809 10.056H61.3809C61.3809 10.0379 61.3825 10.0292 61.3828 10.028C61.383 10.0272 61.3821 10.0316 61.3787 10.0391C61.3753 10.0468 61.3711 10.0537 61.3673 10.0587C61.3637 10.0635 61.3628 10.0635 61.3677 10.0593L60.0661 8.54074ZM59.3809 10.056C59.3809 10.5208 59.5253 11.0723 60.0209 11.444L61.2209 9.844C61.2943 9.89905 61.3425 9.96971 61.3668 10.0291C61.3875 10.0799 61.3809 10.0977 61.3809 10.056H59.3809ZM60.0475 11.4632C60.4208 11.7246 60.847 11.812 61.2449 11.812V9.812C61.1888 9.812 61.162 9.80575 61.1569 9.80438C61.1536 9.80349 61.1699 9.80762 61.1944 9.82477L60.0475 11.4632ZM61.2449 11.812C61.8383 11.812 62.3992 11.6328 62.8639 11.2385L61.57 9.71349C61.5067 9.76717 61.4196 9.812 61.2449 9.812V11.812ZM62.8771 11.2272C63.3971 10.7701 63.6129 10.1496 63.6129 9.504H61.6129C61.6129 9.60661 61.5967 9.65987 61.5878 9.6817C61.5806 9.69947 61.5729 9.71067 61.5568 9.72484L62.8771 11.2272ZM63.6129 9.504V8.964H61.6129V9.504H63.6129ZM62.5785 7.96459L61.8825 7.98859L61.9514 9.98741L62.6474 9.96341L62.5785 7.96459Z" fill="white" mask="url(#path-1-outside-1_1_13)"/>
</g>
<g filter="url(#filter1_d_1_13)">
<mask id="path-3-outside-2_1_13" maskUnits="userSpaceOnUse" x="9" y="13" width="63" height="13" fill="black">
<rect fill="white" x="9" y="13" width="63" height="13"/>
<path d="M13.704 24L11.64 17.28H11.592C11.6 17.44 11.612 17.68 11.628 18C11.644 18.32 11.66 18.664 11.676 19.032C11.692 19.392 11.7 19.72 11.7 20.016V24H10.08V15.432H12.552L14.58 21.984H14.616L16.764 15.432H19.236V24H17.544V19.944C17.544 19.672 17.548 19.36 17.556 19.008C17.572 18.656 17.584 18.324 17.592 18.012C17.608 17.692 17.62 17.452 17.628 17.292H17.58L15.372 24H13.704Z"/>
<path d="M28.8883 20.712C28.8883 21.256 28.8123 21.74 28.6603 22.164C28.5163 22.588 28.3043 22.948 28.0243 23.244C27.7523 23.532 27.4203 23.752 27.0283 23.904C26.6363 24.048 26.1923 24.12 25.6963 24.12C25.2403 24.12 24.8163 24.048 24.4243 23.904C24.0403 23.752 23.7083 23.532 23.4283 23.244C23.1483 22.948 22.9283 22.588 22.7683 22.164C22.6163 21.74 22.5403 21.256 22.5403 20.712C22.5403 19.984 22.6683 19.372 22.9243 18.876C23.1803 18.372 23.5483 17.988 24.0283 17.724C24.5083 17.46 25.0763 17.328 25.7323 17.328C26.3483 17.328 26.8923 17.46 27.3643 17.724C27.8363 17.988 28.2083 18.372 28.4803 18.876C28.7523 19.372 28.8883 19.984 28.8883 20.712ZM24.3643 20.712C24.3643 21.144 24.4083 21.508 24.4963 21.804C24.5923 22.092 24.7403 22.312 24.9403 22.464C25.1403 22.608 25.4003 22.68 25.7203 22.68C26.0403 22.68 26.2963 22.608 26.4883 22.464C26.6883 22.312 26.8323 22.092 26.9203 21.804C27.0163 21.508 27.0643 21.144 27.0643 20.712C27.0643 20.28 27.0163 19.92 26.9203 19.632C26.8323 19.344 26.6883 19.128 26.4883 18.984C26.2883 18.84 26.0283 18.768 25.7083 18.768C25.2363 18.768 24.8923 18.932 24.6763 19.26C24.4683 19.58 24.3643 20.064 24.3643 20.712ZM31.65 20.076C31.65 19.108 31.77 18.288 32.01 17.616C32.25 16.936 32.63 16.396 33.15 15.996C33.67 15.588 34.35 15.312 35.19 15.168C35.614 15.096 36.042 15.036 36.474 14.988C36.914 14.932 37.366 14.876 37.83 14.82L38.034 16.38C37.834 16.404 37.614 16.432 37.374 16.464C37.134 16.488 36.89 16.516 36.642 16.548C36.402 16.572 36.17 16.6 35.946 16.632C35.722 16.664 35.518 16.692 35.334 16.716C35.038 16.764 34.778 16.832 34.554 16.92C34.33 17 34.142 17.116 33.99 17.268C33.838 17.42 33.718 17.628 33.63 17.892C33.55 18.148 33.498 18.48 33.474 18.888H33.558C33.654 18.736 33.786 18.584 33.954 18.432C34.13 18.28 34.346 18.152 34.602 18.048C34.858 17.944 35.15 17.892 35.478 17.892C35.998 17.892 36.45 18 36.834 18.216C37.218 18.432 37.514 18.752 37.722 19.176C37.93 19.6 38.034 20.128 38.034 20.76C38.034 21.504 37.898 22.124 37.626 22.62C37.354 23.116 36.978 23.492 36.498 23.748C36.018 23.996 35.462 24.12 34.83 24.12C34.35 24.12 33.914 24.032 33.522 23.856C33.13 23.68 32.794 23.42 32.514 23.076C32.234 22.732 32.018 22.308 31.866 21.804C31.722 21.3 31.65 20.724 31.65 20.076ZM34.938 22.668C35.194 22.668 35.414 22.612 35.598 22.5C35.79 22.388 35.938 22.204 36.042 21.948C36.154 21.692 36.21 21.348 36.21 20.916C36.21 20.396 36.122 19.984 35.946 19.68C35.778 19.368 35.482 19.212 35.058 19.212C34.802 19.212 34.562 19.276 34.338 19.404C34.122 19.524 33.938 19.664 33.786 19.824C33.634 19.976 33.53 20.108 33.474 20.22C33.474 20.532 33.498 20.836 33.546 21.132C33.594 21.42 33.674 21.68 33.786 21.912C33.898 22.144 34.046 22.328 34.23 22.464C34.422 22.6 34.658 22.668 34.938 22.668ZM42.9788 17.448V24H41.1908V17.448H42.9788ZM42.0908 14.88C42.3548 14.88 42.5828 14.944 42.7748 15.072C42.9668 15.192 43.0628 15.42 43.0628 15.756C43.0628 16.084 42.9668 16.312 42.7748 16.44C42.5828 16.568 42.3548 16.632 42.0908 16.632C41.8188 16.632 41.5868 16.568 41.3948 16.44C41.2108 16.312 41.1188 16.084 41.1188 15.756C41.1188 15.42 41.2108 15.192 41.3948 15.072C41.5868 14.944 41.8188 14.88 42.0908 14.88ZM52.3951 24H50.6071V18.792H48.9631C48.8831 19.752 48.7831 20.572 48.6631 21.252C48.5511 21.924 48.4071 22.472 48.2311 22.896C48.0631 23.32 47.8471 23.632 47.5831 23.832C47.3191 24.024 46.9951 24.12 46.6111 24.12C46.4031 24.12 46.2151 24.104 46.0471 24.072C45.8791 24.04 45.7271 23.992 45.5911 23.928V22.5C45.6791 22.532 45.7711 22.56 45.8671 22.584C45.9631 22.608 46.0631 22.62 46.1671 22.62C46.2791 22.62 46.3831 22.576 46.4791 22.488C46.5831 22.4 46.6791 22.244 46.7671 22.02C46.8631 21.796 46.9511 21.488 47.0311 21.096C47.1111 20.704 47.1831 20.212 47.2471 19.62C47.3191 19.02 47.3831 18.296 47.4391 17.448H52.3951V24ZM60.2375 17.448H62.2055L59.6135 20.592L62.4335 24H60.4055L57.7295 20.676V24H55.9415V17.448H57.7295V20.628L60.2375 17.448ZM67.7392 17.316C68.6192 17.316 69.2912 17.508 69.7552 17.892C70.2272 18.268 70.4632 18.848 70.4632 19.632V24H69.2152L68.8672 23.112H68.8192C68.6352 23.344 68.4432 23.536 68.2432 23.688C68.0512 23.84 67.8272 23.948 67.5712 24.012C67.3232 24.084 67.0152 24.12 66.6472 24.12C66.2632 24.12 65.9152 24.048 65.6032 23.904C65.2992 23.752 65.0592 23.524 64.8832 23.22C64.7072 22.908 64.6192 22.516 64.6192 22.044C64.6192 21.348 64.8632 20.836 65.3512 20.508C65.8392 20.172 66.5712 19.988 67.5472 19.956L68.6872 19.92V19.632C68.6872 19.288 68.5952 19.036 68.4112 18.876C68.2352 18.716 67.9872 18.636 67.6672 18.636C67.3472 18.636 67.0352 18.684 66.7312 18.78C66.4272 18.868 66.1232 18.98 65.8192 19.116L65.2312 17.904C65.5832 17.72 65.9712 17.576 66.3952 17.472C66.8272 17.368 67.2752 17.316 67.7392 17.316ZM67.9912 20.988C67.4152 21.004 67.0152 21.108 66.7912 21.3C66.5672 21.492 66.4552 21.744 66.4552 22.056C66.4552 22.328 66.5352 22.524 66.6952 22.644C66.8552 22.756 67.0632 22.812 67.3192 22.812C67.7032 22.812 68.0272 22.7 68.2912 22.476C68.5552 22.244 68.6872 21.92 68.6872 21.504V20.964L67.9912 20.988Z"/>
</mask>
<path d="M13.704 24L11.64 17.28H11.592C11.6 17.44 11.612 17.68 11.628 18C11.644 18.32 11.66 18.664 11.676 19.032C11.692 19.392 11.7 19.72 11.7 20.016V24H10.08V15.432H12.552L14.58 21.984H14.616L16.764 15.432H19.236V24H17.544V19.944C17.544 19.672 17.548 19.36 17.556 19.008C17.572 18.656 17.584 18.324 17.592 18.012C17.608 17.692 17.62 17.452 17.628 17.292H17.58L15.372 24H13.704Z" fill="#FF238D"/>
<path d="M28.8883 20.712C28.8883 21.256 28.8123 21.74 28.6603 22.164C28.5163 22.588 28.3043 22.948 28.0243 23.244C27.7523 23.532 27.4203 23.752 27.0283 23.904C26.6363 24.048 26.1923 24.12 25.6963 24.12C25.2403 24.12 24.8163 24.048 24.4243 23.904C24.0403 23.752 23.7083 23.532 23.4283 23.244C23.1483 22.948 22.9283 22.588 22.7683 22.164C22.6163 21.74 22.5403 21.256 22.5403 20.712C22.5403 19.984 22.6683 19.372 22.9243 18.876C23.1803 18.372 23.5483 17.988 24.0283 17.724C24.5083 17.46 25.0763 17.328 25.7323 17.328C26.3483 17.328 26.8923 17.46 27.3643 17.724C27.8363 17.988 28.2083 18.372 28.4803 18.876C28.7523 19.372 28.8883 19.984 28.8883 20.712ZM24.3643 20.712C24.3643 21.144 24.4083 21.508 24.4963 21.804C24.5923 22.092 24.7403 22.312 24.9403 22.464C25.1403 22.608 25.4003 22.68 25.7203 22.68C26.0403 22.68 26.2963 22.608 26.4883 22.464C26.6883 22.312 26.8323 22.092 26.9203 21.804C27.0163 21.508 27.0643 21.144 27.0643 20.712C27.0643 20.28 27.0163 19.92 26.9203 19.632C26.8323 19.344 26.6883 19.128 26.4883 18.984C26.2883 18.84 26.0283 18.768 25.7083 18.768C25.2363 18.768 24.8923 18.932 24.6763 19.26C24.4683 19.58 24.3643 20.064 24.3643 20.712ZM31.65 20.076C31.65 19.108 31.77 18.288 32.01 17.616C32.25 16.936 32.63 16.396 33.15 15.996C33.67 15.588 34.35 15.312 35.19 15.168C35.614 15.096 36.042 15.036 36.474 14.988C36.914 14.932 37.366 14.876 37.83 14.82L38.034 16.38C37.834 16.404 37.614 16.432 37.374 16.464C37.134 16.488 36.89 16.516 36.642 16.548C36.402 16.572 36.17 16.6 35.946 16.632C35.722 16.664 35.518 16.692 35.334 16.716C35.038 16.764 34.778 16.832 34.554 16.92C34.33 17 34.142 17.116 33.99 17.268C33.838 17.42 33.718 17.628 33.63 17.892C33.55 18.148 33.498 18.48 33.474 18.888H33.558C33.654 18.736 33.786 18.584 33.954 18.432C34.13 18.28 34.346 18.152 34.602 18.048C34.858 17.944 35.15 17.892 35.478 17.892C35.998 17.892 36.45 18 36.834 18.216C37.218 18.432 37.514 18.752 37.722 19.176C37.93 19.6 38.034 20.128 38.034 20.76C38.034 21.504 37.898 22.124 37.626 22.62C37.354 23.116 36.978 23.492 36.498 23.748C36.018 23.996 35.462 24.12 34.83 24.12C34.35 24.12 33.914 24.032 33.522 23.856C33.13 23.68 32.794 23.42 32.514 23.076C32.234 22.732 32.018 22.308 31.866 21.804C31.722 21.3 31.65 20.724 31.65 20.076ZM34.938 22.668C35.194 22.668 35.414 22.612 35.598 22.5C35.79 22.388 35.938 22.204 36.042 21.948C36.154 21.692 36.21 21.348 36.21 20.916C36.21 20.396 36.122 19.984 35.946 19.68C35.778 19.368 35.482 19.212 35.058 19.212C34.802 19.212 34.562 19.276 34.338 19.404C34.122 19.524 33.938 19.664 33.786 19.824C33.634 19.976 33.53 20.108 33.474 20.22C33.474 20.532 33.498 20.836 33.546 21.132C33.594 21.42 33.674 21.68 33.786 21.912C33.898 22.144 34.046 22.328 34.23 22.464C34.422 22.6 34.658 22.668 34.938 22.668ZM42.9788 17.448V24H41.1908V17.448H42.9788ZM42.0908 14.88C42.3548 14.88 42.5828 14.944 42.7748 15.072C42.9668 15.192 43.0628 15.42 43.0628 15.756C43.0628 16.084 42.9668 16.312 42.7748 16.44C42.5828 16.568 42.3548 16.632 42.0908 16.632C41.8188 16.632 41.5868 16.568 41.3948 16.44C41.2108 16.312 41.1188 16.084 41.1188 15.756C41.1188 15.42 41.2108 15.192 41.3948 15.072C41.5868 14.944 41.8188 14.88 42.0908 14.88ZM52.3951 24H50.6071V18.792H48.9631C48.8831 19.752 48.7831 20.572 48.6631 21.252C48.5511 21.924 48.4071 22.472 48.2311 22.896C48.0631 23.32 47.8471 23.632 47.5831 23.832C47.3191 24.024 46.9951 24.12 46.6111 24.12C46.4031 24.12 46.2151 24.104 46.0471 24.072C45.8791 24.04 45.7271 23.992 45.5911 23.928V22.5C45.6791 22.532 45.7711 22.56 45.8671 22.584C45.9631 22.608 46.0631 22.62 46.1671 22.62C46.2791 22.62 46.3831 22.576 46.4791 22.488C46.5831 22.4 46.6791 22.244 46.7671 22.02C46.8631 21.796 46.9511 21.488 47.0311 21.096C47.1111 20.704 47.1831 20.212 47.2471 19.62C47.3191 19.02 47.3831 18.296 47.4391 17.448H52.3951V24ZM60.2375 17.448H62.2055L59.6135 20.592L62.4335 24H60.4055L57.7295 20.676V24H55.9415V17.448H57.7295V20.628L60.2375 17.448ZM67.7392 17.316C68.6192 17.316 69.2912 17.508 69.7552 17.892C70.2272 18.268 70.4632 18.848 70.4632 19.632V24H69.2152L68.8672 23.112H68.8192C68.6352 23.344 68.4432 23.536 68.2432 23.688C68.0512 23.84 67.8272 23.948 67.5712 24.012C67.3232 24.084 67.0152 24.12 66.6472 24.12C66.2632 24.12 65.9152 24.048 65.6032 23.904C65.2992 23.752 65.0592 23.524 64.8832 23.22C64.7072 22.908 64.6192 22.516 64.6192 22.044C64.6192 21.348 64.8632 20.836 65.3512 20.508C65.8392 20.172 66.5712 19.988 67.5472 19.956L68.6872 19.92V19.632C68.6872 19.288 68.5952 19.036 68.4112 18.876C68.2352 18.716 67.9872 18.636 67.6672 18.636C67.3472 18.636 67.0352 18.684 66.7312 18.78C66.4272 18.868 66.1232 18.98 65.8192 19.116L65.2312 17.904C65.5832 17.72 65.9712 17.576 66.3952 17.472C66.8272 17.368 67.2752 17.316 67.7392 17.316ZM67.9912 20.988C67.4152 21.004 67.0152 21.108 66.7912 21.3C66.5672 21.492 66.4552 21.744 66.4552 22.056C66.4552 22.328 66.5352 22.524 66.6952 22.644C66.8552 22.756 67.0632 22.812 67.3192 22.812C67.7032 22.812 68.0272 22.7 68.2912 22.476C68.5552 22.244 68.6872 21.92 68.6872 21.504V20.964L67.9912 20.988Z" fill="#700098"/>
<path d="M13.704 24L12.7481 24.2936L12.965 25H13.704V24ZM11.64 17.28L12.5959 16.9864L12.379 16.28H11.64V17.28ZM11.592 17.28V16.28H10.5408L10.5932 17.3299L11.592 17.28ZM11.628 18L10.6292 18.0499L10.6292 18.0499L11.628 18ZM11.676 19.032L10.6769 19.0754L10.677 19.0764L11.676 19.032ZM11.7 24V25H12.7V24H11.7ZM10.08 24H9.08V25H10.08V24ZM10.08 15.432V14.432H9.08V15.432H10.08ZM12.552 15.432L13.5073 15.1363L13.2893 14.432H12.552V15.432ZM14.58 21.984L13.6247 22.2797L13.8427 22.984H14.58V21.984ZM14.616 21.984V22.984H15.3405L15.5662 22.2955L14.616 21.984ZM16.764 15.432V14.432H16.0395L15.8138 15.1205L16.764 15.432ZM19.236 15.432H20.236V14.432H19.236V15.432ZM19.236 24V25H20.236V24H19.236ZM17.544 24H16.544V25H17.544V24ZM17.556 19.008L16.557 18.9626L16.5565 18.9739L16.5563 18.9853L17.556 19.008ZM17.592 18.012L16.5932 17.9621L16.5926 17.9742L16.5923 17.9864L17.592 18.012ZM17.628 17.292L18.6268 17.3419L18.6792 16.292H17.628V17.292ZM17.58 17.292V16.292H16.8564L16.6301 16.9793L17.58 17.292ZM15.372 24V25H16.0956L16.3219 24.3127L15.372 24ZM14.6599 23.7064L12.5959 16.9864L10.6841 17.5736L12.7481 24.2936L14.6599 23.7064ZM11.64 16.28H11.592V18.28H11.64V16.28ZM10.5932 17.3299C10.6012 17.4899 10.6132 17.7299 10.6292 18.0499L12.6268 17.9501C12.6108 17.6301 12.5988 17.3901 12.5908 17.2301L10.5932 17.3299ZM10.6292 18.0499C10.6451 18.3675 10.661 18.7093 10.6769 19.0754L12.6751 18.9886C12.659 18.6187 12.6429 18.2725 12.6268 17.9501L10.6292 18.0499ZM10.677 19.0764C10.6925 19.4247 10.7 19.7376 10.7 20.016H12.7C12.7 19.7024 12.6915 19.3593 12.675 18.9876L10.677 19.0764ZM10.7 20.016V24H12.7V20.016H10.7ZM11.7 23H10.08V25H11.7V23ZM11.08 24V15.432H9.08V24H11.08ZM10.08 16.432H12.552V14.432H10.08V16.432ZM11.5967 15.7277L13.6247 22.2797L15.5353 21.6883L13.5073 15.1363L11.5967 15.7277ZM14.58 22.984H14.616V20.984H14.58V22.984ZM15.5662 22.2955L17.7142 15.7435L15.8138 15.1205L13.6658 21.6725L15.5662 22.2955ZM16.764 16.432H19.236V14.432H16.764V16.432ZM18.236 15.432V24H20.236V15.432H18.236ZM19.236 23H17.544V25H19.236V23ZM18.544 24V19.944H16.544V24H18.544ZM18.544 19.944C18.544 19.6814 18.5479 19.3772 18.5557 19.0307L16.5563 18.9853C16.5481 19.3428 16.544 19.6626 16.544 19.944H18.544ZM18.555 19.0534C18.5712 18.6956 18.5835 18.357 18.5917 18.0376L16.5923 17.9864C16.5845 18.291 16.5728 18.6164 16.557 18.9626L18.555 19.0534ZM18.5908 18.0619C18.6068 17.7419 18.6188 17.5019 18.6268 17.3419L16.6292 17.2421C16.6212 17.4021 16.6092 17.6421 16.5932 17.9621L18.5908 18.0619ZM17.628 16.292H17.58V18.292H17.628V16.292ZM16.6301 16.9793L14.4221 23.6873L16.3219 24.3127L18.5299 17.6047L16.6301 16.9793ZM15.372 23H13.704V25H15.372V23ZM28.6603 22.164L27.719 21.8265L27.7161 21.8345L27.7134 21.8424L28.6603 22.164ZM28.0243 23.244L27.2978 22.5568L27.2973 22.5574L28.0243 23.244ZM27.0283 23.904L27.3731 24.8427L27.3815 24.8396L27.3898 24.8364L27.0283 23.904ZM24.4243 23.904L24.0563 24.8338L24.0678 24.8384L24.0795 24.8427L24.4243 23.904ZM23.4283 23.244L22.7018 23.9313L22.7113 23.9411L23.4283 23.244ZM22.7683 22.164L21.827 22.5015L21.8298 22.5093L21.8327 22.5171L22.7683 22.164ZM22.9243 18.876L23.813 19.3347L23.8159 19.3289L22.9243 18.876ZM24.0283 17.724L24.5102 18.6002L24.5102 18.6002L24.0283 17.724ZM27.3643 17.724L26.8762 18.5968L26.8762 18.5968L27.3643 17.724ZM28.4803 18.876L27.6003 19.3509L27.6035 19.3568L28.4803 18.876ZM24.4963 21.804L23.5378 22.089L23.5424 22.1047L23.5476 22.1202L24.4963 21.804ZM24.9403 22.464L24.3352 23.2602L24.3455 23.268L24.356 23.2755L24.9403 22.464ZM26.4883 22.464L27.0883 23.264L27.0934 23.2602L26.4883 22.464ZM26.9203 21.804L25.9691 21.4955L25.9665 21.5036L25.964 21.5118L26.9203 21.804ZM26.9203 19.632L25.964 19.9242L25.9676 19.9363L25.9716 19.9482L26.9203 19.632ZM24.6763 19.26L23.8411 18.71L23.8379 18.715L24.6763 19.26ZM27.8883 20.712C27.8883 21.1642 27.825 21.5307 27.719 21.8265L29.6017 22.5015C29.7996 21.9493 29.8883 21.3478 29.8883 20.712H27.8883ZM27.7134 21.8424C27.6111 22.1437 27.4695 22.3754 27.2978 22.5568L28.7508 23.9312C29.1392 23.5206 29.4215 23.0323 29.6072 22.4856L27.7134 21.8424ZM27.2973 22.5574C27.1336 22.7307 26.9289 22.87 26.6668 22.9716L27.3898 24.8364C27.9117 24.634 28.3711 24.3333 28.7513 23.9306L27.2973 22.5574ZM26.6835 22.9653C26.4205 23.0619 26.0962 23.12 25.6963 23.12V25.12C26.2884 25.12 26.8521 25.0341 27.3731 24.8427L26.6835 22.9653ZM25.6963 23.12C25.3471 23.12 25.041 23.0652 24.7691 22.9653L24.0795 24.8427C24.5916 25.0308 25.1335 25.12 25.6963 25.12V23.12ZM24.7924 22.9742C24.536 22.8727 24.3239 22.7307 24.1453 22.5469L22.7113 23.9411C23.0927 24.3333 23.5446 24.6313 24.0563 24.8338L24.7924 22.9742ZM24.1548 22.5568C23.9757 22.3675 23.8223 22.1247 23.7039 21.8109L21.8327 22.5171C22.0343 23.0513 22.3209 23.5285 22.7018 23.9312L24.1548 22.5568ZM23.7097 21.8265C23.6036 21.5307 23.5403 21.1642 23.5403 20.712H21.5403C21.5403 21.3478 21.629 21.9493 21.827 22.5015L23.7097 21.8265ZM23.5403 20.712C23.5403 20.0967 23.649 19.6523 23.8129 19.3346L22.0357 18.4174C21.6877 19.0917 21.5403 19.8713 21.5403 20.712H23.5403ZM23.8159 19.3289C23.984 18.9978 24.2121 18.7642 24.5102 18.6002L23.5464 16.8478C22.8846 17.2118 22.3766 17.7462 22.0327 18.4231L23.8159 19.3289ZM24.5102 18.6002C24.816 18.432 25.2116 18.328 25.7323 18.328V16.328C24.941 16.328 24.2006 16.488 23.5464 16.8478L24.5102 18.6002ZM25.7323 18.328C26.2015 18.328 26.573 18.4272 26.8762 18.5968L27.8525 16.8512C27.2116 16.4928 26.4951 16.328 25.7323 16.328V18.328ZM26.8762 18.5968C27.1725 18.7625 27.4129 19.0037 27.6003 19.3509L29.3603 18.4011C29.0037 17.7403 28.5002 17.2135 27.8525 16.8512L26.8762 18.5968ZM27.6035 19.3568C27.7748 19.6691 27.8883 20.1051 27.8883 20.712H29.8883C29.8883 19.8629 29.7299 19.0749 29.3571 18.3952L27.6035 19.3568ZM23.3643 20.712C23.3643 21.2052 23.4138 21.6718 23.5378 22.089L25.4548 21.519C25.4029 21.3442 25.3643 21.0828 25.3643 20.712H23.3643ZM23.5476 22.1202C23.6938 22.5587 23.9442 22.9629 24.3352 23.2602L25.5454 21.6678C25.5365 21.6611 25.4908 21.6253 25.445 21.4878L23.5476 22.1202ZM24.356 23.2755C24.7707 23.5741 25.253 23.68 25.7203 23.68V21.68C25.5476 21.68 25.5099 21.6419 25.5246 21.6525L24.356 23.2755ZM25.7203 23.68C26.1851 23.68 26.6736 23.5751 27.0883 23.264L25.8883 21.664C25.9191 21.6409 25.8956 21.68 25.7203 21.68V23.68ZM27.0934 23.2602C27.4915 22.9576 27.7398 22.544 27.8767 22.0962L25.964 21.5118C25.9248 21.64 25.8851 21.6664 25.8832 21.6678L27.0934 23.2602ZM27.8715 22.1125C28.0097 21.6865 28.0643 21.2112 28.0643 20.712H26.0643C26.0643 21.0768 26.0229 21.3295 25.9691 21.4955L27.8715 22.1125ZM28.0643 20.712C28.0643 20.2141 28.01 19.7389 27.869 19.3158L25.9716 19.9482C26.0226 20.1011 26.0643 20.3459 26.0643 20.712H28.0643ZM27.8767 19.3398C27.7393 18.8902 27.4866 18.4705 27.0726 18.1725L25.904 19.7955C25.9016 19.7938 25.9052 19.7951 25.9143 19.8087C25.9245 19.824 25.944 19.8588 25.964 19.9242L27.8767 19.3398ZM27.0726 18.1725C26.6579 17.8739 26.1756 17.768 25.7083 17.768V19.768C25.881 19.768 25.9187 19.8061 25.904 19.7955L27.0726 18.1725ZM25.7083 17.768C24.9781 17.768 24.2813 18.0416 23.8411 18.71L25.5115 19.81C25.5154 19.804 25.5183 19.8004 25.52 19.7985C25.5208 19.7976 25.5214 19.7969 25.5217 19.7966C25.5221 19.7962 25.5223 19.796 25.5223 19.796C25.5224 19.796 25.5224 19.796 25.5223 19.796C25.5223 19.796 25.5223 19.796 25.5224 19.7959C25.5226 19.7958 25.5239 19.795 25.5267 19.7937C25.5361 19.7892 25.5865 19.768 25.7083 19.768V17.768ZM23.8379 18.715C23.474 19.2749 23.3643 19.9906 23.3643 20.712H25.3643C25.3643 20.1374 25.4627 19.8851 25.5148 19.805L23.8379 18.715ZM32.01 17.616L32.9517 17.9523L32.953 17.9488L32.01 17.616ZM33.15 15.996L33.7597 16.7887L33.7673 16.7827L33.15 15.996ZM35.19 15.168L35.0226 14.1821L35.021 14.1824L35.19 15.168ZM36.474 14.988L36.5844 15.9819L36.5924 15.981L36.6003 15.98L36.474 14.988ZM37.83 14.82L38.8216 14.6903L38.6932 13.7086L37.7102 13.8272L37.83 14.82ZM38.034 16.38L38.1531 17.3729L39.1566 17.2525L39.0256 16.2503L38.034 16.38ZM37.374 16.464L37.4735 17.459L37.4899 17.4574L37.5062 17.4552L37.374 16.464ZM36.642 16.548L36.7415 17.543L36.7558 17.5416L36.77 17.5398L36.642 16.548ZM35.334 16.716L35.2047 15.7244L35.1893 15.7264L35.1739 15.7289L35.334 16.716ZM34.554 16.92L34.8903 17.8617L34.9051 17.8565L34.9197 17.8508L34.554 16.92ZM33.63 17.892L32.6813 17.5758L32.6783 17.5847L32.6755 17.5937L33.63 17.892ZM33.474 18.888L32.4757 18.8293L32.4134 19.888H33.474V18.888ZM33.558 18.888V19.888H34.1092L34.4035 19.422L33.558 18.888ZM33.954 18.432L33.3004 17.6752L33.2916 17.6827L33.2831 17.6905L33.954 18.432ZM34.602 18.048L34.2256 17.1215L34.2256 17.1215L34.602 18.048ZM36.834 18.216L37.3243 17.3444L37.3243 17.3444L36.834 18.216ZM37.722 19.176L36.8242 19.6164L36.8242 19.6164L37.722 19.176ZM37.626 22.62L38.5028 23.1008L38.5028 23.1008L37.626 22.62ZM36.498 23.748L36.9571 24.6365L36.9686 24.6304L36.498 23.748ZM33.522 23.856L33.1124 24.7683L33.522 23.856ZM32.514 23.076L33.2896 22.4447L33.2896 22.4447L32.514 23.076ZM31.866 21.804L30.9045 22.0787L30.9065 22.0857L30.9086 22.0927L31.866 21.804ZM35.598 22.5L35.0941 21.6362L35.086 21.6409L35.0781 21.6458L35.598 22.5ZM36.042 21.948L35.1258 21.5472L35.1205 21.5593L35.1155 21.5716L36.042 21.948ZM35.946 19.68L35.0655 20.1541L35.0728 20.1677L35.0806 20.181L35.946 19.68ZM34.338 19.404L34.8237 20.2782L34.8341 20.2722L34.338 19.404ZM33.786 19.824L34.4931 20.5311L34.5022 20.522L34.511 20.5127L33.786 19.824ZM33.474 20.22L32.5796 19.7728L32.474 19.9839V20.22H33.474ZM33.546 21.132L32.5589 21.2921L32.5596 21.2964L33.546 21.132ZM33.786 21.912L32.8854 22.3467L32.8854 22.3467L33.786 21.912ZM34.23 22.464L33.6356 23.2682L33.6437 23.2742L33.652 23.28L34.23 22.464ZM32.65 20.076C32.65 19.1845 32.7613 18.4855 32.9517 17.9523L31.0683 17.2797C30.7787 18.0905 30.65 19.0315 30.65 20.076H32.65ZM32.953 17.9488C33.1353 17.4323 33.408 17.0592 33.7597 16.7886L32.5403 15.2034C31.852 15.7328 31.3647 16.4397 31.067 17.2832L32.953 17.9488ZM33.7673 16.7827C34.1243 16.5026 34.6365 16.2775 35.359 16.1536L35.021 14.1824C34.0635 14.3465 33.2157 14.6734 32.5327 15.2093L33.7673 16.7827ZM35.3574 16.1539C35.7623 16.0851 36.1713 16.0278 36.5844 15.9819L36.3636 13.9941C35.9127 14.0442 35.4657 14.1069 35.0226 14.1821L35.3574 16.1539ZM36.6003 15.98C37.038 15.9243 37.4879 15.8686 37.9498 15.8128L37.7102 13.8272C37.2441 13.8834 36.79 13.9397 36.3477 13.996L36.6003 15.98ZM36.8384 14.9497L37.0424 16.5097L39.0256 16.2503L38.8216 14.6903L36.8384 14.9497ZM37.9149 15.3871C37.7098 15.4117 37.4853 15.4403 37.2418 15.4728L37.5062 17.4552C37.7427 17.4237 37.9583 17.3963 38.1531 17.3729L37.9149 15.3871ZM37.2745 15.469C37.0247 15.4939 36.7712 15.523 36.514 15.5562L36.77 17.5398C37.0088 17.509 37.2433 17.4821 37.4735 17.459L37.2745 15.469ZM36.5425 15.553C36.2894 15.5783 36.0434 15.6079 35.8046 15.6421L36.0874 17.6219C36.2966 17.5921 36.5146 17.5657 36.7415 17.543L36.5425 15.553ZM35.8046 15.6421C35.5838 15.6736 35.3839 15.701 35.2047 15.7244L35.4633 17.7076C35.6521 17.683 35.8602 17.6544 36.0874 17.6219L35.8046 15.6421ZM35.1739 15.7289C34.824 15.7856 34.4925 15.8698 34.1883 15.9892L34.9197 17.8508C35.0635 17.7942 35.252 17.7424 35.4941 17.7031L35.1739 15.7289ZM34.2177 15.9783C33.8692 16.1027 33.5503 16.2935 33.2829 16.5609L34.6971 17.9751C34.7337 17.9385 34.7908 17.8973 34.8903 17.8617L34.2177 15.9783ZM33.2829 16.5609C32.9937 16.8501 32.8044 17.2064 32.6813 17.5758L34.5787 18.2082C34.6316 18.0496 34.6823 17.9899 34.6971 17.9751L33.2829 16.5609ZM32.6755 17.5937C32.5621 17.9567 32.5023 18.3776 32.4757 18.8293L34.4723 18.9467C34.4937 18.5824 34.5379 18.3393 34.5845 18.1903L32.6755 17.5937ZM33.474 19.888H33.558V17.888H33.474V19.888ZM34.4035 19.422C34.4403 19.3637 34.5076 19.2796 34.6249 19.1735L33.2831 17.6905C33.0644 17.8884 32.8677 18.1083 32.7125 18.354L34.4035 19.422ZM34.6076 19.1888C34.6872 19.1201 34.8049 19.0449 34.9784 18.9745L34.2256 17.1215C33.8871 17.2591 33.5728 17.4399 33.3004 17.6752L34.6076 19.1888ZM34.9784 18.9745C35.0947 18.9272 35.2554 18.892 35.478 18.892V16.892C35.0446 16.892 34.6213 16.9608 34.2256 17.1215L34.9784 18.9745ZM35.478 18.892C35.8573 18.892 36.1344 18.9698 36.3437 19.0876L37.3243 17.3444C36.7656 17.0302 36.1387 16.892 35.478 16.892V18.892ZM36.3437 19.0876C36.5385 19.1971 36.6986 19.3603 36.8242 19.6164L38.6198 18.7356C38.3294 18.1437 37.8975 17.6669 37.3243 17.3444L36.3437 19.0876ZM36.8242 19.6164C36.9462 19.8651 37.034 20.2314 37.034 20.76H39.034C39.034 20.0246 38.9138 19.3349 38.6198 18.7356L36.8242 19.6164ZM37.034 20.76C37.034 21.3872 36.9189 21.8298 36.7492 22.1392L38.5028 23.1008C38.8771 22.4182 39.034 21.6208 39.034 20.76H37.034ZM36.7492 22.1392C36.5667 22.4719 36.3288 22.7049 36.0274 22.8656L36.9686 24.6304C37.6272 24.2791 38.1413 23.7601 38.5028 23.1008L36.7492 22.1392ZM36.039 22.8596C35.7232 23.0228 35.3294 23.12 34.83 23.12V25.12C35.5946 25.12 36.3128 24.9692 36.957 24.6364L36.039 22.8596ZM34.83 23.12C34.4746 23.12 34.1805 23.0555 33.9316 22.9437L33.1124 24.7683C33.6475 25.0085 34.2254 25.12 34.83 25.12V23.12ZM33.9316 22.9437C33.6865 22.8337 33.4744 22.6718 33.2896 22.4447L31.7384 23.7073C32.1136 24.1682 32.5735 24.5263 33.1124 24.7683L33.9316 22.9437ZM33.2896 22.4447C33.1058 22.219 32.9446 21.9172 32.8234 21.5153L30.9086 22.0927C31.0914 22.6988 31.3622 23.245 31.7384 23.7073L33.2896 22.4447ZM32.8275 21.5293C32.7142 21.1328 32.65 20.6521 32.65 20.076H30.65C30.65 20.7959 30.7298 21.4672 30.9045 22.0787L32.8275 21.5293ZM34.938 23.668C35.3425 23.668 35.75 23.5782 36.1179 23.3542L35.0781 21.6458C35.078 21.6458 35.0455 21.668 34.938 21.668V23.668ZM36.1019 23.3638C36.5272 23.1157 36.8019 22.7343 36.9685 22.3244L35.1155 21.5716C35.0941 21.6244 35.0774 21.6467 35.0738 21.6512C35.0721 21.6534 35.073 21.6519 35.0771 21.6483C35.0813 21.6446 35.0871 21.6403 35.0941 21.6362L36.1019 23.3638ZM36.9582 22.3488C37.1473 21.9165 37.21 21.4184 37.21 20.916H35.21C35.21 21.2776 35.1607 21.4675 35.1258 21.5472L36.9582 22.3488ZM37.21 20.916C37.21 20.2987 37.108 19.6913 36.8114 19.179L35.0806 20.181C35.136 20.2767 35.21 20.4933 35.21 20.916H37.21ZM36.8265 19.2059C36.4465 18.5003 35.7633 18.212 35.058 18.212V20.212C35.1499 20.212 35.1608 20.229 35.1318 20.2137C35.1172 20.206 35.1006 20.1942 35.0859 20.1793C35.079 20.1724 35.0739 20.1661 35.0703 20.1613C35.0668 20.1565 35.0654 20.1538 35.0655 20.1541L36.8265 19.2059ZM35.058 18.212C34.6266 18.212 34.2157 18.3221 33.8419 18.5358L34.8341 20.2722C34.9083 20.2299 34.9774 20.212 35.058 20.212V18.212ZM33.8524 18.5298C33.5581 18.6933 33.2907 18.8934 33.061 19.1353L34.511 20.5127C34.5853 20.4346 34.6859 20.3547 34.8236 20.2782L33.8524 18.5298ZM33.0789 19.1169C32.8971 19.2987 32.7061 19.5198 32.5796 19.7728L34.3684 20.6672C34.3578 20.6886 34.3563 20.6854 34.3795 20.6559C34.4015 20.6279 34.4377 20.5865 34.4931 20.5311L33.0789 19.1169ZM32.474 20.22C32.474 20.5835 32.502 20.9411 32.5589 21.2921L34.5331 20.9719C34.494 20.7309 34.474 20.4805 34.474 20.22H32.474ZM32.5596 21.2964C32.6212 21.6659 32.7271 22.0186 32.8854 22.3467L34.6866 21.4773C34.6209 21.3414 34.5668 21.1741 34.5324 20.9676L32.5596 21.2964ZM32.8854 22.3467C33.059 22.7063 33.3054 23.0241 33.6356 23.2682L34.8244 21.6598C34.7866 21.6319 34.737 21.5817 34.6866 21.4773L32.8854 22.3467ZM33.652 23.28C34.0431 23.5571 34.4912 23.668 34.938 23.668V21.668C34.8788 21.668 34.8443 21.6608 34.8279 21.6561C34.8129 21.6518 34.8085 21.6483 34.808 21.648L33.652 23.28ZM42.9788 17.448H43.9788V16.448H42.9788V17.448ZM42.9788 24V25H43.9788V24H42.9788ZM41.1908 24H40.1908V25H41.1908V24ZM41.1908 17.448V16.448H40.1908V17.448H41.1908ZM42.7748 15.072L42.2201 15.904L42.2324 15.9122L42.2448 15.92L42.7748 15.072ZM42.7748 16.44L42.2201 15.6079L42.2201 15.6079L42.7748 16.44ZM41.3948 16.44L40.8238 17.2609L40.8319 17.2666L40.8401 17.272L41.3948 16.44ZM41.3948 15.072L41.9411 15.9097L41.9495 15.904L41.3948 15.072ZM41.9788 17.448V24H43.9788V17.448H41.9788ZM42.9788 23H41.1908V25H42.9788V23ZM42.1908 24V17.448H40.1908V24H42.1908ZM41.1908 18.448H42.9788V16.448H41.1908V18.448ZM42.0908 15.88C42.1867 15.88 42.2152 15.9008 42.2201 15.904L43.3295 14.2399C42.9505 13.9872 42.523 13.88 42.0908 13.88V15.88ZM42.2448 15.92C42.2022 15.8933 42.163 15.8591 42.1304 15.8198C42.0985 15.7812 42.0796 15.7457 42.0692 15.7211C42.0505 15.6767 42.0628 15.6764 42.0628 15.756H44.0628C44.0628 15.2548 43.9145 14.6051 43.3048 14.224L42.2448 15.92ZM42.0628 15.756C42.0628 15.8279 42.0516 15.8268 42.0692 15.7849C42.0788 15.7622 42.0957 15.7306 42.1234 15.6963C42.1515 15.6616 42.1847 15.6316 42.2201 15.6079L43.3295 17.2721C43.9063 16.8875 44.0628 16.2659 44.0628 15.756H42.0628ZM42.2201 15.6079C42.2152 15.6112 42.1867 15.632 42.0908 15.632V17.632C42.523 17.632 42.9505 17.5248 43.3295 17.272L42.2201 15.6079ZM42.0908 15.632C41.9803 15.632 41.9497 15.608 41.9495 15.6079L40.8401 17.272C41.224 17.528 41.6574 17.632 42.0908 17.632V15.632ZM41.9659 15.6191C42.0035 15.6453 42.0371 15.6773 42.0644 15.7125C42.0913 15.7472 42.1068 15.7781 42.1152 15.7988C42.1303 15.8362 42.1188 15.8322 42.1188 15.756H40.1188C40.1188 16.2504 40.2616 16.8698 40.8238 17.2609L41.9659 15.6191ZM42.1188 15.756C42.1188 15.6722 42.1313 15.6673 42.1152 15.7072C42.1061 15.7297 42.0886 15.7645 42.0576 15.8036C42.0259 15.8436 41.9863 15.8801 41.9411 15.9096L40.8486 14.2344C40.2533 14.6226 40.1188 15.2708 40.1188 15.756H42.1188ZM41.9495 15.904C41.9497 15.904 41.9803 15.88 42.0908 15.88V13.88C41.6574 13.88 41.224 13.984 40.8401 14.24L41.9495 15.904ZM52.3951 24V25H53.3951V24H52.3951ZM50.6071 24H49.6071V25H50.6071V24ZM50.6071 18.792H51.6071V17.792H50.6071V18.792ZM48.9631 18.792V17.792H48.043L47.9665 18.709L48.9631 18.792ZM48.6631 21.252L47.6783 21.0782L47.6767 21.0876L48.6631 21.252ZM48.2311 22.896L47.3075 22.5126L47.3044 22.5201L47.3014 22.5276L48.2311 22.896ZM47.5831 23.832L48.1713 24.6407L48.1792 24.635L48.187 24.6291L47.5831 23.832ZM46.0471 24.072L46.2342 23.0897L46.2342 23.0897L46.0471 24.072ZM45.5911 23.928H44.5911V24.5626L45.1653 24.8328L45.5911 23.928ZM45.5911 22.5L45.9328 21.5602L44.5911 21.0723V22.5H45.5911ZM45.8671 22.584L46.1096 21.6139L46.1096 21.6139L45.8671 22.584ZM46.4791 22.488L45.8332 21.7246L45.818 21.7374L45.8034 21.7508L46.4791 22.488ZM46.7671 22.02L45.848 21.6261L45.8419 21.6401L45.8363 21.6543L46.7671 22.02ZM47.0311 21.096L46.0513 20.896L46.0513 20.896L47.0311 21.096ZM47.2471 19.62L46.2541 19.5008L46.2529 19.5125L47.2471 19.62ZM47.4391 17.448V16.448H46.503L46.4413 17.3821L47.4391 17.448ZM52.3951 17.448H53.3951V16.448H52.3951V17.448ZM52.3951 23H50.6071V25H52.3951V23ZM51.6071 24V18.792H49.6071V24H51.6071ZM50.6071 17.792H48.9631V19.792H50.6071V17.792ZM47.9665 18.709C47.8882 19.6494 47.7914 20.4374 47.6783 21.0782L49.6479 21.4258C49.7748 20.7066 49.878 19.8546 49.9596 18.875L47.9665 18.709ZM47.6767 21.0876C47.5718 21.7169 47.4439 22.184 47.3075 22.5126L49.1547 23.2794C49.3703 22.76 49.5304 22.1311 49.6495 21.4164L47.6767 21.0876ZM47.3014 22.5276C47.1764 22.8432 47.0525 22.9794 46.9792 23.0349L48.187 24.6291C48.6417 24.2846 48.9498 23.7968 49.1608 23.2644L47.3014 22.5276ZM46.9949 23.0233C46.9305 23.0701 46.8222 23.12 46.6111 23.12V25.12C47.168 25.12 47.7077 24.9779 48.1713 24.6407L46.9949 23.0233ZM46.6111 23.12C46.4529 23.12 46.329 23.1077 46.2342 23.0897L45.86 25.0543C46.1012 25.1003 46.3532 25.12 46.6111 25.12V23.12ZM46.2342 23.0897C46.1376 23.0713 46.0673 23.0469 46.0169 23.0232L45.1653 24.8328C45.3869 24.9371 45.6206 25.0087 45.86 25.0543L46.2342 23.0897ZM46.5911 23.928V22.5H44.5911V23.928H46.5911ZM45.2494 23.4398C45.3716 23.4843 45.4969 23.5222 45.6246 23.5541L46.1096 21.6139C46.0453 21.5978 45.9865 21.5797 45.9328 21.5602L45.2494 23.4398ZM45.6246 23.5541C45.8038 23.599 45.9855 23.62 46.1671 23.62V21.62C46.1407 21.62 46.1224 21.617 46.1096 21.6139L45.6246 23.5541ZM46.1671 23.62C46.5696 23.62 46.9064 23.4529 47.1548 23.2252L45.8034 21.7508C45.8269 21.7293 45.8715 21.6948 45.9395 21.666C46.0097 21.6363 46.0881 21.62 46.1671 21.62V23.62ZM47.125 23.2514C47.4185 23.0031 47.5892 22.6622 47.6978 22.3857L45.8363 21.6543C45.8224 21.6898 45.81 21.7178 45.7996 21.7394C45.789 21.7612 45.7814 21.7744 45.7774 21.7809C45.7734 21.7875 45.7746 21.7846 45.7822 21.7753C45.7898 21.7661 45.8063 21.7474 45.8332 21.7246L47.125 23.2514ZM47.6862 22.4139C47.8205 22.1007 47.9248 21.718 48.0109 21.296L46.0513 20.896C45.9774 21.258 45.9057 21.4913 45.848 21.6261L47.6862 22.4139ZM48.0109 21.296C48.0994 20.8625 48.1754 20.3371 48.2413 19.7275L46.2529 19.5125C46.1908 20.0869 46.1228 20.5455 46.0513 20.896L48.0109 21.296ZM48.24 19.7391C48.3148 19.116 48.3802 18.3732 48.4369 17.5139L46.4413 17.3821C46.386 18.2188 46.3234 18.924 46.2542 19.5009L48.24 19.7391ZM47.4391 18.448H52.3951V16.448H47.4391V18.448ZM51.3951 17.448V24H53.3951V17.448H51.3951ZM60.2375 17.448V16.448H59.7526L59.4523 16.8287L60.2375 17.448ZM62.2055 17.448L62.9771 18.0841L64.3259 16.448H62.2055V17.448ZM59.6135 20.592L58.8419 19.9559L58.3165 20.5932L58.843 21.2295L59.6135 20.592ZM62.4335 24V25H64.5589L63.2039 23.3625L62.4335 24ZM60.4055 24L59.6265 24.6271L59.9267 25H60.4055V24ZM57.7295 20.676L58.5084 20.0489L56.7295 17.8392V20.676H57.7295ZM57.7295 24V25H58.7295V24H57.7295ZM55.9415 24H54.9415V25H55.9415V24ZM55.9415 17.448V16.448H54.9415V17.448H55.9415ZM57.7295 17.448H58.7295V16.448H57.7295V17.448ZM57.7295 20.628H56.7295V23.5108L58.5147 21.2473L57.7295 20.628ZM60.2375 18.448H62.2055V16.448H60.2375V18.448ZM61.4339 16.8119L58.8419 19.9559L60.3851 21.2281L62.9771 18.0841L61.4339 16.8119ZM58.843 21.2295L61.663 24.6375L63.2039 23.3625L60.3839 19.9545L58.843 21.2295ZM62.4335 23H60.4055V25H62.4335V23ZM61.1844 23.3729L58.5084 20.0489L56.9505 21.3031L59.6265 24.6271L61.1844 23.3729ZM56.7295 20.676V24H58.7295V20.676H56.7295ZM57.7295 23H55.9415V25H57.7295V23ZM56.9415 24V17.448H54.9415V24H56.9415ZM55.9415 18.448H57.7295V16.448H55.9415V18.448ZM56.7295 17.448V20.628H58.7295V17.448H56.7295ZM58.5147 21.2473L61.0227 18.0673L59.4523 16.8287L56.9443 20.0087L58.5147 21.2473ZM69.7552 17.892L69.1176 18.6624L69.1248 18.6683L69.1321 18.6742L69.7552 17.892ZM70.4632 24V25H71.4632V24H70.4632ZM69.2152 24L68.2841 24.3649L68.533 25H69.2152V24ZM68.8672 23.112L69.7982 22.7471L69.5493 22.112H68.8672V23.112ZM68.8192 23.112V22.112H68.3359L68.0357 22.4906L68.8192 23.112ZM68.2432 23.688L67.6381 22.8918L67.6302 22.8978L67.6225 22.904L68.2432 23.688ZM67.5712 24.012L67.3286 23.0419L67.3104 23.0464L67.2923 23.0517L67.5712 24.012ZM65.6032 23.904L65.1559 24.7984L65.1699 24.8054L65.1841 24.812L65.6032 23.904ZM64.8832 23.22L64.0121 23.7114L64.0177 23.721L64.8832 23.22ZM65.3512 20.508L65.909 21.338L65.9183 21.3316L65.3512 20.508ZM67.5472 19.956L67.5156 18.9565L67.5144 18.9565L67.5472 19.956ZM68.6872 19.92L68.7187 20.9195L69.6872 20.8889V19.92H68.6872ZM68.4112 18.876L67.7385 19.6159L67.7466 19.6234L67.755 19.6306L68.4112 18.876ZM66.7312 18.78L67.0092 19.7406L67.0208 19.7372L67.0323 19.7336L66.7312 18.78ZM65.8192 19.116L64.9194 19.5525L65.3426 20.4247L66.2275 20.0288L65.8192 19.116ZM65.2312 17.904L64.7679 17.0178L63.9078 17.4673L64.3314 18.3405L65.2312 17.904ZM66.3952 17.472L66.1611 16.4998L66.1569 16.5008L66.3952 17.472ZM67.9912 20.988L68.0189 21.9876L68.0256 21.9874L67.9912 20.988ZM66.7912 21.3L66.1404 20.5407L66.1404 20.5407L66.7912 21.3ZM66.6952 22.644L66.0952 23.444L66.1083 23.4538L66.1217 23.4632L66.6952 22.644ZM68.2912 22.476L68.9381 23.2385L68.9447 23.2329L68.9513 23.2272L68.2912 22.476ZM68.6872 20.964H69.6872V19.9289L68.6527 19.9646L68.6872 20.964ZM67.7392 18.316C68.4907 18.316 68.8995 18.4819 69.1176 18.6624L70.3927 17.1216C69.6828 16.5341 68.7476 16.316 67.7392 16.316V18.316ZM69.1321 18.6742C69.2982 18.8065 69.4632 19.0539 69.4632 19.632H71.4632C71.4632 18.6421 71.1561 17.7295 70.3782 17.1098L69.1321 18.6742ZM69.4632 19.632V24H71.4632V19.632H69.4632ZM70.4632 23H69.2152V25H70.4632V23ZM70.1462 23.6351L69.7982 22.7471L67.9361 23.4769L68.2841 24.3649L70.1462 23.6351ZM68.8672 22.112H68.8192V24.112H68.8672V22.112ZM68.0357 22.4906C67.8946 22.6684 67.7609 22.7985 67.6381 22.8918L68.8482 24.4842C69.1254 24.2735 69.3757 24.0196 69.6027 23.7334L68.0357 22.4906ZM67.6225 22.904C67.5503 22.9611 67.4576 23.0096 67.3286 23.0419L67.8137 24.9821C68.1967 24.8864 68.552 24.7189 68.8639 24.472L67.6225 22.904ZM67.2923 23.0517C67.1644 23.0888 66.9573 23.12 66.6472 23.12V25.12C67.073 25.12 67.482 25.0792 67.85 24.9723L67.2923 23.0517ZM66.6472 23.12C66.3908 23.12 66.1881 23.0726 66.0222 22.996L65.1841 24.812C65.6422 25.0234 66.1356 25.12 66.6472 25.12V23.12ZM66.0504 23.0096C65.9273 22.9481 65.8301 22.8598 65.7486 22.719L64.0177 23.721C64.2882 24.1882 64.671 24.5559 65.1559 24.7984L66.0504 23.0096ZM65.7541 22.7287C65.6854 22.6068 65.6192 22.3968 65.6192 22.044H63.6192C63.6192 22.6352 63.7289 23.2092 64.0122 23.7113L65.7541 22.7287ZM65.6192 22.044C65.6192 21.6105 65.7512 21.444 65.909 21.338L64.7933 19.678C63.9752 20.228 63.6192 21.0855 63.6192 22.044H65.6192ZM65.9183 21.3316C66.1768 21.1537 66.6837 20.9848 67.5799 20.9555L67.5144 18.9565C66.4586 18.9912 65.5015 19.1903 64.7841 19.6844L65.9183 21.3316ZM67.5787 20.9555L68.7187 20.9195L68.6556 18.9205L67.5156 18.9565L67.5787 20.9555ZM69.6872 19.92V19.632H67.6872V19.92H69.6872ZM69.6872 19.632C69.6872 19.1216 69.548 18.5394 69.0673 18.1214L67.755 19.6306C67.7331 19.6116 67.715 19.5905 67.7011 19.5698C67.6875 19.5495 67.6811 19.5341 67.6788 19.5279C67.6767 19.5222 67.6789 19.5264 67.6816 19.5438C67.6843 19.5614 67.6872 19.5901 67.6872 19.632H69.6872ZM69.0838 18.1361C68.6681 17.7581 68.1487 17.636 67.6672 17.636V19.636C67.7458 19.636 67.781 19.646 67.7862 19.6477C67.7881 19.6483 67.7829 19.6468 67.7731 19.6413C67.7629 19.6355 67.7508 19.6271 67.7385 19.6159L69.0838 18.1361ZM67.6672 17.636C67.2454 17.636 66.8318 17.6995 66.43 17.8264L67.0323 19.7336C67.2385 19.6685 67.4489 19.636 67.6672 19.636V17.636ZM66.4531 17.8194C66.1024 17.921 65.7549 18.0492 65.4108 18.2032L66.2275 20.0288C66.4914 19.9108 66.7519 19.815 67.0092 19.7406L66.4531 17.8194ZM66.7189 18.6795L66.1309 17.4675L64.3314 18.3405L64.9194 19.5525L66.7189 18.6795ZM65.6944 18.7902C65.9684 18.647 66.2799 18.5299 66.6334 18.4432L66.1569 16.5008C65.6624 16.6221 65.1979 16.793 64.7679 17.0178L65.6944 18.7902ZM66.6292 18.4442C66.9812 18.3595 67.3505 18.316 67.7392 18.316V16.316C67.1998 16.316 66.6731 16.3765 66.1611 16.4998L66.6292 18.4442ZM67.9634 19.9884C67.3447 20.0056 66.6407 20.1119 66.1404 20.5407L67.4419 22.0593C67.4018 22.0937 67.4026 22.0739 67.5108 22.0458C67.6153 22.0187 67.7793 21.9943 68.0189 21.9876L67.9634 19.9884ZM66.1404 20.5407C65.6806 20.9348 65.4552 21.4712 65.4552 22.056H67.4552C67.4552 22.0379 67.4568 22.0292 67.457 22.028C67.4572 22.0272 67.4563 22.0316 67.453 22.0391C67.4496 22.0468 67.4453 22.0537 67.4416 22.0587C67.4379 22.0635 67.437 22.0635 67.4419 22.0593L66.1404 20.5407ZM65.4552 22.056C65.4552 22.5208 65.5996 23.0723 66.0952 23.444L67.2952 21.844C67.3685 21.899 67.4168 21.9697 67.441 22.0291C67.4617 22.0799 67.4552 22.0977 67.4552 22.056H65.4552ZM66.1217 23.4632C66.495 23.7246 66.9212 23.812 67.3192 23.812V21.812C67.263 21.812 67.2362 21.8058 67.2311 21.8044C67.2278 21.8035 67.2441 21.8076 67.2686 21.8248L66.1217 23.4632ZM67.3192 23.812C67.9125 23.812 68.4734 23.6328 68.9381 23.2385L67.6442 21.7135C67.5809 21.7672 67.4938 21.812 67.3192 21.812V23.812ZM68.9513 23.2272C69.4714 22.7701 69.6872 22.1496 69.6872 21.504H67.6872C67.6872 21.6066 67.671 21.6599 67.6621 21.6817C67.6548 21.6995 67.6472 21.7107 67.631 21.7248L68.9513 23.2272ZM69.6872 21.504V20.964H67.6872V21.504H69.6872ZM68.6527 19.9646L67.9567 19.9886L68.0256 21.9874L68.7216 21.9634L68.6527 19.9646Z" fill="white" mask="url(#path-3-outside-2_1_13)"/>
</g>
<path d="M-14.9874 21.8006C-13.2474 23.2808 74.1163 56.0957 87.7868 14.5599" stroke="#FF238D" stroke-width="2"/>
<path d="M-11.9874 27.8006C-10.2474 29.2808 77.1163 62.0957 90.7868 20.5599" stroke="#700098" stroke-width="2"/>
<defs>
<filter id="filter0_d_1_13" x="1.696" y="2.312" width="65.6929" height="12.808" filterUnits="userSpaceOnUse" color-interpolation-filters="sRGB">
<feFlood flood-opacity="0" result="BackgroundImageFix"/>
<feColorMatrix in="SourceAlpha" type="matrix" values="0 0 0 0 0 0 0 0 0 0 0 0 0 0 0 0 0 0 127 0" result="hardAlpha"/>
<feOffset dx="1" dy="1"/>
<feGaussianBlur stdDeviation="1"/>
<feComposite in2="hardAlpha" operator="out"/>
<feColorMatrix type="matrix" values="0 0 0 0 0 0 0 0 0 0 0 0 0 0 0 0 0 0 0.5 0"/>
<feBlend mode="normal" in2="BackgroundImageFix" result="effect1_dropShadow_1_13"/>
<feBlend mode="normal" in="SourceGraphic" in2="effect1_dropShadow_1_13" result="shape"/>
</filter>
<filter id="filter1_d_1_13" x="9.08" y="13.82" width="64.3831" height="13.3" filterUnits="userSpaceOnUse" color-interpolation-filters="sRGB">
<feFlood flood-opacity="0" result="BackgroundImageFix"/>
<feColorMatrix in="SourceAlpha" type="matrix" values="0 0 0 0 0 0 0 0 0 0 0 0 0 0 0 0 0 0 127 0" result="hardAlpha"/>
<feOffset dx="1" dy="1"/>
<feGaussianBlur stdDeviation="1"/>
<feComposite in2="hardAlpha" operator="out"/>
<feColorMatrix type="matrix" values="0 0 0 0 0 0 0 0 0 0 0 0 0 0 0 0 0 0 0.5 0"/>
<feBlend mode="normal" in2="BackgroundImageFix" result="effect1_dropShadow_1_13"/>
<feBlend mode="normal" in="SourceGraphic" in2="effect1_dropShadow_1_13" result="shape"/>
</filter>
</defs>
</svg>
